{"title":"Sissi.Die.junge.Kaiserin[1956]DvDrip[de]","uid":5139048,"size":796309970,"categoryP":"video","categoryS":"movies","magnet":"?xt=urn:btih:08a76fd7e3986c93a9486a5397b7e0b9c9f073a0&amp;dn=Sissi.Die.junge.Kaiserin%5B1956%5DDvDrip%5Bde%5D&amp;tr=udp%3A%2F%2Ftracker.openbittorrent.com%3A80&amp;tr=udp%3A%2F%2Fopen.demonii.com%3A1337&amp;tr=udp%3A%2F%2Ftracker.coppersurfer.tk%3A6969&amp;tr=udp%3A%2F%2Fexodus.desync.com%3A6969","seeders":2,"leechers":2,"uploader":null,"files":2,"time":1256747413,"description":"No subtitles, audio in German.\n\nGeneral\nComplete name                    : C:Sissi.Die.junge.Kaiserin[1956]DvDrip[de].avi\nFormat                           : MPEG-PS\nFile size                        : 759 MiB\nDuration                         : 1h 41mn\nOverall bit rate                 : 1 049 Kbps\n\nVideo\nID                               : 224 (0xE0)\nFormat                           : MPEG Video\nFormat version                   : Version 1\nFormat settings, Matrix          : Default\nDuration                         : 1h 41mn\nBit rate mode                    : Variable\nBit rate                         : 895 Kbps\nWidth                            : 352 pixels\nHeight                           : 288 pixels\nDisplay aspect ratio             : 4:3\nFrame rate                       : 25.000 fps\nScan type                        : Progressive\nBits/(Pixel*Frame)               : 0.353\nStream size                      : 648 MiB (85%)\n\nAudio\nID                               : 192 (0xC0)\nFormat                           : MPEG Audio\nFormat version                   : Version 1\nFormat profile                   : Layer 2\nDuration                         : 1h 41mn\nBit rate mode                    : Constant\nBit rate                         : 112 Kbps\nChannel(s)                       : 2 channels\nSampling rate                    : 44.1 KHz\nResolution                       : 16 bits\nStream size                      : 81.1 MiB (11%)\n\n","torrent":{"xt":"urn:btih:08a76fd7e3986c93a9486a5397b7e0b9c9f073a0","amp;dn":"Sissi.Die.junge.Kaiserin%5B1956%5DDvDrip%5Bde%5D","amp;tr":["udp%3A%2F%2Ftracker.openbittorrent.com%3A80","udp%3A%2F%2Fopen.demonii.com%3A1337","udp%3A%2F%2Ftracker.coppersurfer.tk%3A6969","udp%3A%2F%2Fexodus.desync.com%3A6969"],"infoHash":"08a76fd7e3986c93a9486a5397b7e0b9c9f073a0","infoHashBuffer":{"type":"Buffer","data":[8,167,111,215,227,152,108,147,169,72,106,83,151,183,224,185,201,240,115,160]},"announce":[],"urlList":[]}}